# xmcd
#
# Track frame offsets:
#        150
#        24592
#        58164
#        85586
#        110503
#        138114
#
# Disc length: 2200 seconds
#
# Revision: 0
# Processed by: cddbd v1.5.1PL0 Copyright (c) Steve Scherf et al.
# Submitted via: ExactAudioCopy v0.95a5
#
DISCID=45089606
DTITLE=Don Wilkerson - Shoutin'
DYEAR=1963
DGENRE=Jazz
TTITLE0=Movin' Out
TTITLE1=Cookin' With Clarence
TTITLE2=Easy Living
TTITLE3=Happy Johnny
TTITLE4=Blues For J
TTITLE5=Sweet Cake
EXTD=
EXTT0=
EXTT1=
EXTT2=
EXTT3=
EXTT4=
EXTT5=
PLAYORDER=
